<svg width="1920" height="1080" viewBox="0 0 1920 1080" fill="none" xmlns="http://www.w3.org/2000/svg">
<path d="M589.191 681.189L573.264 640.423L726.564 648.377L719.595 714L589.191 681.189ZM626.023 366L412 467.417L444.85 619.543H488.65L481.682 510.171L487.655 508.183L514.532 619.543H559.327L558.332 486.309L564.305 484.32L587.2 619.543H635.977L646.927 459.463L653.895 456.48L665.841 619.543H728.555L751.45 396.823L626.023 366ZM1471.16 676.217L1410.44 666.274V658.32L1469.17 656.331L1468.18 641.417H1393.52L1389.54 679.2L1451.25 690.137V697.097L1386.55 700.08L1384.56 714H1475.15L1471.16 676.217ZM889.818 670.251L888.823 684.171L910.723 685.166V699.086L863.936 698.091L865.927 657.326L929.636 656.331L928.641 641.417H846.018L839.05 714H932.623L930.632 669.257L889.818 670.251V670.251ZM1287 697.097V684.171L1330.8 683.177V669.257L1286.01 668.263V655.337L1344.74 654.343V639.429H1265.1L1263.11 714H1346.73L1345.74 699.086L1287 697.097V697.097ZM1223.3 714L1215.33 640.423H1194.43L1163.57 675.223L1132.71 640.423H1111.8L1104.84 714H1129.72L1131.71 666.274L1163.57 699.086L1195.42 666.274L1197.41 714H1223.3ZM1117.78 370.971H1068L1064.02 598.663H1123.75L1117.78 370.971ZM1320.85 370.971H1165.56L1159.59 598.663H1331.8L1320.85 370.971V370.971ZM1273.07 548.949L1218.32 550.937L1215.33 416.709L1273.07 418.697V548.949ZM1507 420.686L1501.03 370.971H1347.73L1349.72 414.72L1398.5 416.709L1403.47 598.663H1464.2L1446.28 418.697L1507 420.686ZM970.45 598.663H1036.15L993.345 496.251L1027.19 477.36L1004.3 370.971H837.059L831.086 420.686L868.914 419.691L850.995 599.657H909.727L911.718 541.989L953.527 519.12L970.45 598.663V598.663ZM914.705 416.709L962.486 415.714L968.459 461.451L912.714 487.303L914.705 416.709ZM1044.11 714H1069L1049.09 640.423H989.364L969.455 714H994.341L998.323 695.109L1039.14 696.103L1044.11 714ZM1002.3 681.189L1007.28 657.326L1031.17 656.331L1036.15 680.194L1002.3 681.189Z" fill="#D13639"/>
</svg>
